D:\school\WTK\thesis\model\3dpredictsim\Results\batch_tmt_lin\Pog_s1_tmt_bCst_d05_k1000_ig24_act_TTCM_GRF.mot
nRows=22
nColumns=19

name D:\school\WTK\thesis\model\3dpredictsim\Results\batch_tmt_lin\Pog_s1_tmt_bCst_d05_k1000_ig24_act_TTCM_GRF.mot
datacolumns 19
datarows 22
range 0.6083397383 0.8638424285
endheader
time 	ground_force_vx	ground_force_vy	ground_force_vz	ground_force_px	ground_force_py	ground_force_pz	1_ground_force_vx	1_ground_force_vy	1_ground_force_vz	1_ground_force_px	1_ground_force_py	1_ground_force_pz	ground_torque_x	ground_torque_y	ground_torque_z	1_ground_torque_x	1_ground_torque_y	1_ground_torque_z
        0.6083397383	      114.1029789880	      483.1076978650	        2.0514642918	        0.4145023447	        0.0000000000	        0.0353348802	      -33.7208187883	       24.0069592723	       -7.5257426068	        0.9517191139	        0.0000000000	       -0.0535190887	        0.0000000000	        0.0000000000	        0.0000000000	        0.0000000000	        0.0000000000	        0.0000000000	
        0.6205065331	      109.8352275940	      422.2522647197	        5.0537745923	        0.4189839943	        0.0000000000	        0.0337429193	      -88.7269944539	       77.6724767927	      -26.6625092532	        0.9626517740	        0.0000000000	       -0.0509484977	        0.0000000000	        0.0000000000	        0.0000000000	        0.0000000000	        0.0000000000	        0.0000000000	
        0.6326733279	       77.5909013962	      325.2070744066	       11.5115405831	        0.4267240785	        0.0000000000	        0.0305310815	      -98.9038433267	      201.2799555378	      -52.5977159534	        0.9693980726	        0.0000000000	       -0.0494091672	        0.0000000000	        0.0000000000	        0.0000000000	        0.0000000000	        0.0000000000	        0.0000000000	
        0.6448401226	       45.4839960567	      219.3269334957	       14.9211716739	        0.4397664886	        0.0000000000	        0.0245454920	      -59.2234394499	      400.2472632109	       -6.4855138933	        0.9736845714	        0.0000000000	       -0.0481815172	        0.0000000000	        0.0000000000	        0.0000000000	        0.0000000000	        0.0000000000	        0.0000000000	
        0.6570069174	       30.7530860661	      171.6877406263	       13.7616971598	        0.4449762228	        0.0000000000	        0.0217759743	      -78.0598773766	      610.1779091658	       11.2572376857	        0.9812027955	        0.0000000000	       -0.0494497159	        0.0000000000	        0.0000000000	        0.0000000000	        0.0000000000	        0.0000000000	        0.0000000000	
        0.6691737122	       24.8114636307	      128.3237839062	       12.2858548836	        0.4453282856	        0.0000000000	        0.0217752730	     -120.0511517942	      795.0179287019	       18.7765527598	        0.9905882613	        0.0000000000	       -0.0515986744	        0.0000000000	        0.0000000000	        0.0000000000	        0.0000000000	        0.0000000000	        0.0000000000	
        0.6813405069	       13.4709237960	       71.3105481630	       11.9887026399	        0.4456281356	        0.0000000000	        0.0221609762	     -137.2469658114	      864.1656113610	       19.5928501842	        0.9966312409	        0.0000000000	       -0.0528686362	        0.0000000000	        0.0000000000	        0.0000000000	        0.0000000000	        0.0000000000	        0.0000000000	
        0.6935073017	       -2.3708715061	       10.9918932617	        2.3653479794	        0.4434133331	        0.0000000000	        0.0219259582	     -135.6659596134	      863.4968373743	       19.1151618122	        1.0007478459	        0.0000000000	       -0.0535634295	        0.0000000000	        0.0000000000	        0.0000000000	        0.0000000000	        0.0000000000	        0.0000000000	
        0.7056740965	        0.0016491618	       -0.0014961216	        0.0000934823	        0.0000000000	        0.0000000000	        0.0000000000	     -121.3450045012	      836.0935886401	       19.4637361679	        1.0046157432	        0.0000000000	       -0.0538736945	        0.0000000000	        0.0000000000	        0.0000000000	        0.0000000000	        0.0000000000	        0.0000000000	
        0.7178408912	        0.0003279611	       -0.0002483233	        0.0000273044	        0.0000000000	        0.0000000000	        0.0000000000	     -106.2879266552	      793.2500773448	       18.3828228641	        1.0087977854	        0.0000000000	       -0.0539075792	        0.0000000000	        0.0000000000	        0.0000000000	        0.0000000000	        0.0000000000	        0.0000000000	
        0.7300076860	        0.0021661591	       -0.0014215745	        0.0001979965	        0.0000000000	        0.0000000000	        0.0000000000	      -94.6309805448	      754.9221676674	       18.2601453895	        1.0137176586	        0.0000000000	       -0.0537190092	        0.0000000000	        0.0000000000	        0.0000000000	        0.0000000000	        0.0000000000	        0.0000000000	
        0.7421744808	        0.0106364024	       -0.0062695781	        0.0009902767	        0.0000000000	        0.0000000000	        0.0000000000	      -84.6879860122	      722.7154336373	       17.9981806213	        1.0192090616	        0.0000000000	       -0.0533460993	        0.0000000000	        0.0000000000	        0.0000000000	        0.0000000000	        0.0000000000	        0.0000000000	
        0.7543412756	       -0.1651603210	        0.0904621673	       -0.0146217605	        0.0000000000	        0.0000000000	        0.0000000000	      -75.0781091399	      692.7813977338	       18.1279763824	        1.0245162129	        0.0000000000	       -0.0529460993	        0.0000000000	        0.0000000000	        0.0000000000	        0.0000000000	        0.0000000000	        0.0000000000	
        0.7665080703	       -0.1022578260	        0.0527591980	       -0.0088059405	        0.0000000000	        0.0000000000	        0.0000000000	      -65.5481141564	      665.8430038558	       18.4457105178	        1.0294463128	        0.0000000000	       -0.0526256038	        0.0000000000	        0.0000000000	        0.0000000000	        0.0000000000	        0.0000000000	        0.0000000000	
        0.7786748651	       -0.0635322776	        0.0312493668	       -0.0053396514	        0.0000000000	        0.0000000000	        0.0000000000	      -56.7501663913	      643.0384115790	       18.8879536594	        1.0341951746	        0.0000000000	       -0.0523755990	        0.0000000000	        0.0000000000	        0.0000000000	        0.0000000000	        0.0000000000	        0.0000000000	
        0.7908416599	       -0.0481159767	        0.0227413394	       -0.0039448812	        0.0000000000	        0.0000000000	        0.0000000000	      -48.9007006116	      624.1804125350	       19.2314513146	        1.0388646813	        0.0000000000	       -0.0521700083	        0.0000000000	        0.0000000000	        0.0000000000	        0.0000000000	        0.0000000000	        0.0000000000	
        0.8030084546	       -0.0456063723	        0.0208515222	       -0.0036245631	        0.0000000000	        0.0000000000	        0.0000000000	      -41.7851752656	      609.5365363704	       19.4238858653	        1.0437586441	        0.0000000000	       -0.0519645640	        0.0000000000	        0.0000000000	        0.0000000000	        0.0000000000	        0.0000000000	        0.0000000000	
        0.8151752494	       -0.0527405964	        0.0234418679	       -0.0040415771	        0.0000000000	        0.0000000000	        0.0000000000	      -35.8300581465	      599.0275117446	       19.4753170627	        1.0491474579	        0.0000000000	       -0.0516998785	        0.0000000000	        0.0000000000	        0.0000000000	        0.0000000000	        0.0000000000	        0.0000000000	
        0.8273420442	       -0.0717743414	        0.0311170028	       -0.0052779247	        0.0000000000	        0.0000000000	        0.0000000000	      -30.9275771416	      592.5289763929	       19.3776257605	        1.0550927370	        0.0000000000	       -0.0513402063	        0.0000000000	        0.0000000000	        0.0000000000	        0.0000000000	        0.0000000000	        0.0000000000	
        0.8395088389	       -0.1110695086	        0.0470694932	       -0.0077828421	        0.0000000000	        0.0000000000	        0.0000000000	      -27.4725139928	      589.0405529951	       19.1260602014	        1.0613652049	        0.0000000000	       -0.0508886711	        0.0000000000	        0.0000000000	        0.0000000000	        0.0000000000	        0.0000000000	        0.0000000000	
        0.8516756337	       -0.1860102208	        0.0772169862	       -0.0123592922	        0.0000000000	        0.0000000000	        0.0000000000	      -24.5604462929	      587.5441008740	       18.8466080669	        1.0677788530	        0.0000000000	       -0.0503664942	        0.0000000000	        0.0000000000	        0.0000000000	        0.0000000000	        0.0000000000	        0.0000000000	
        0.8638424285	       -0.3186523319	        0.1299009958	       -0.0200058784	        0.0000000000	        0.0000000000	        0.0000000000	      -21.8453829213	      586.9513042171	       18.5645280007	        1.0741945906	        0.0000000000	       -0.0497993678	        0.0000000000	        0.0000000000	        0.0000000000	        0.0000000000	        0.0000000000	        0.0000000000	
